<svg xmlns="http://www.w3.org/2000/svg" width="134.172" height="80.38" viewBox="0 0 134.172 80.38"><defs><style>.a{opacity:0.74;}.b{fill:#5a5a5a;}</style></defs><g class="a"><path class="b" d="M45.725,48.707A34.029,34.029,0,0,1,44.287,45.5a14.761,14.761,0,0,1-.479-3.978h0V27.141a14.809,14.809,0,0,0-3.786-11.215,16.343,16.343,0,0,0-11.694-3.642,27.078,27.078,0,0,0-6.949.863,25.017,25.017,0,0,0-5.8,2.157,3.5,3.5,0,0,0-1.246.959,2.971,2.971,0,0,0-.288,1.534V20c0,.911.288,1.39.911,1.39h.719l1.725-.671a39.874,39.874,0,0,1,4.793-1.534,21.518,21.518,0,0,1,4.793-.575,10.256,10.256,0,0,1,7.285,2.061,9.873,9.873,0,0,1,2.061,7.141V31.07c-1.773-.431-3.451-.767-5.128-1.006a40.833,40.833,0,0,0-4.793-.335A16.007,16.007,0,0,0,15.58,33.179a11.358,11.358,0,0,0-4.074,9.154,11.358,11.358,0,0,0,3.307,8.579,12.125,12.125,0,0,0,8.962,3.355,16.582,16.582,0,0,0,13.132-6.134,26.406,26.406,0,0,0,1.39,2.636,12.461,12.461,0,0,0,1.582,2.061,1.917,1.917,0,0,0,1.342.623,1.821,1.821,0,0,0,1.15-.383L45.2,51.2a1.534,1.534,0,0,0,.527-2.348Zm-9.25-10.831a14.953,14.953,0,0,1-.431,3.882,7.285,7.285,0,0,1-1.294,2.923,10.4,10.4,0,0,1-4.217,2.876,14.665,14.665,0,0,1-4.793.767,6.614,6.614,0,0,1-4.17-11.5A10.448,10.448,0,0,1,28.184,35.1a25.19,25.19,0,0,1,4.217.24c1.438.24,2.78.479,4.074.767ZM58.713,50.912a3.738,3.738,0,0,0,.911,1.773,2.78,2.78,0,0,0,1.725.431h3.834a2.828,2.828,0,0,0,1.773-.431,3.546,3.546,0,0,0,.863-1.821l6.853-28.755,6.949,28.755a2.924,2.924,0,0,0,.815,1.773,2.684,2.684,0,0,0,1.821.479h3.834a2.684,2.684,0,0,0,1.677-.479,3.451,3.451,0,0,0,.958-1.725l11.119-34.458a3.115,3.115,0,0,0,.288-1.1,4.265,4.265,0,0,0,0-.719.958.958,0,0,0-1.1-1.1h-4.17a3.259,3.259,0,0,0-1.725.431,4.026,4.026,0,0,0-.863,1.725L86.51,45.592,79.369,15.926a3.067,3.067,0,0,0-.815-1.725,2.971,2.971,0,0,0-1.821-.431H73.091a2.252,2.252,0,0,0-2.636,2.157l-6.949,29.33-7.428-29.33a3.834,3.834,0,0,0-.863-1.725,2.732,2.732,0,0,0-1.773-.431H49.128c-.719,0-1.054.383-1.054,1.1a6.135,6.135,0,0,0,.383,1.773Zm47.925.815a19.505,19.505,0,0,0,5.128,1.773,30.1,30.1,0,0,0,6.853.815,21.471,21.471,0,0,0,6.422-.959,13.707,13.707,0,0,0,4.793-2.492,11.742,11.742,0,0,0,3.259-3.93,11.262,11.262,0,0,0,1.15-5.176,10.016,10.016,0,0,0-2.061-6.23,13.467,13.467,0,0,0-6.374-4.265l-6.326-2.013a13.227,13.227,0,0,1-4.793-2.492,4.265,4.265,0,0,1-1.342-3.163,4.361,4.361,0,0,1,2.109-3.978,11.933,11.933,0,0,1,5.559-1.246,19.889,19.889,0,0,1,8.579,1.773,5.176,5.176,0,0,0,1.677.527c.671,0,1.054-.479,1.054-1.438V17.124a2.157,2.157,0,0,0-.431-1.438,3.643,3.643,0,0,0-1.342-1.15,12.461,12.461,0,0,0-1.869-.815,14.308,14.308,0,0,1-2.54-.671l-2.876-.527h-3.019a19.554,19.554,0,0,0-5.607.719,14.617,14.617,0,0,0-4.793,2.348,11.167,11.167,0,0,0-3.211,3.642,9.825,9.825,0,0,0-1.2,4.793,10.879,10.879,0,0,0,2.2,6.47,13.8,13.8,0,0,0,7.141,4.553l6.47,2.013a10.16,10.16,0,0,1,4.505,2.3,4.361,4.361,0,0,1,1.246,3.115,4.793,4.793,0,0,1-2.348,4.265,12.269,12.269,0,0,1-6.518,1.438,25.352,25.352,0,0,1-5.32-.527,23.244,23.244,0,0,1-4.793-1.534l-1.1-.479h-.815c-.671,0-1.054.479-1.054,1.39v2.444a2.971,2.971,0,0,0,.288,1.246,3.307,3.307,0,0,0,1.534,1.006Zm18.308,20.9a132.8,132.8,0,0,1-50.418,10.4A134.191,134.191,0,0,1,8.1,65.337c-1.629-.959-2.876.719-1.534,1.965a98.343,98.343,0,0,0,66.521,25.3,96.234,96.234,0,0,0,54.348-16.582c2.3-1.821.192-4.505-2.252-3.4Zm14.378-8.387c-1.582-1.965-15.384-3.69-23.963,2.2-1.294.959-1.054,2.2.335,2.013,4.793-.575,15.336-1.821,17.205.575S130.793,81.344,129.02,85.8c-.527,1.294.623,1.869,1.821.815,8.387-6.614,10.448-20.368,8.818-22.381Z" transform="translate(-6.001 -12.228)"/></g></svg>