<svg xmlns="http://www.w3.org/2000/svg" width="84" height="90" viewBox="0 0 84 90"><defs><style>.a{fill:#fd8a1d;}</style></defs><g transform="translate(-9.583 -6.821)"><path class="a" d="M70.564,110.537a1.949,1.949,0,0,0,1.93-1.968V73.184a1.949,1.949,0,0,0-1.93-1.968H55.279a1.949,1.949,0,0,0-1.93,1.968V108.57a1.949,1.949,0,0,0,1.93,1.968ZM57.209,75.151H68.634V106.6H57.209Z" transform="translate(-9.979 -13.716)"/><path class="a" d="M109.515,104.306a1.949,1.949,0,0,0,1.93-1.968V43.928a1.949,1.949,0,0,0-1.93-1.968H94.23a1.949,1.949,0,0,0-1.93,1.968v58.411a1.949,1.949,0,0,0,1.93,1.968ZM96.164,45.9h11.425v54.476H96.164Z" transform="translate(-18.86 -7.484)"/><path class="a" d="M33.545,111.939V89a1.949,1.949,0,0,0-1.93-1.968H16.33A1.949,1.949,0,0,0,14.4,89v22.937a1.949,1.949,0,0,0,1.93,1.968H31.615A1.949,1.949,0,0,0,33.545,111.939Zm-3.86-1.968H18.26v-19H29.685Z" transform="translate(-1.098 -17.085)"/><path class="a" d="M19.688,59.949a10.2,10.2,0,0,0,10.068-9.54,113.3,113.3,0,0,0,14.469-5.116,9.948,9.948,0,0,0,12.1,2.089,10.352,10.352,0,0,0,5.117-11.376A115.1,115.1,0,0,0,76.334,24.381a9.956,9.956,0,0,0,13.552.7,10.431,10.431,0,0,0,1.994-13.682A9.983,9.983,0,0,0,78.715,8.044a10.386,10.386,0,0,0-4.549,13.032,111.311,111.311,0,0,1-14.3,11.29,9.974,9.974,0,0,0-13-3.228A10.376,10.376,0,0,0,42.151,41.9a109.488,109.488,0,0,1-12.859,4.552,10.081,10.081,0,0,0-11.713-6.88,10.32,10.32,0,0,0,2.11,20.372ZM83.5,10.756a6.368,6.368,0,1,1-6.245,6.367A6.307,6.307,0,0,1,83.5,10.756ZM51.592,31.9a6.368,6.368,0,1,1-6.245,6.367A6.307,6.307,0,0,1,51.592,31.9Zm-31.9,11.384a6.368,6.368,0,1,1-6.245,6.367,6.307,6.307,0,0,1,6.245-6.367Z" transform="translate(0 0)"/></g></svg>