<svg xmlns="http://www.w3.org/2000/svg" width="84" height="83" viewBox="0 0 84 83"><defs><style>.a{fill:#fd8a1d;}</style></defs><g transform="translate(0 0)"><path class="a" d="M12.528,63.2A2.727,2.727,0,0,0,9.858,66a2.684,2.684,0,0,0,2.67,2.6A2.555,2.555,0,0,0,15.2,66,2.606,2.606,0,0,0,12.528,63.2ZM41.9,73a2.727,2.727,0,0,0-2.67,2.8,2.684,2.684,0,0,0,2.67,2.6,2.737,2.737,0,0,0,2.875-2.6A2.772,2.772,0,0,0,41.9,73Zm2.465-4.2a7.326,7.326,0,1,1-9.858,7,7.619,7.619,0,0,1,5.134-7V49H28.958V68.2H19.511a7.315,7.315,0,0,1-6.983,5,7.2,7.2,0,1,1,0-14.4,7.149,7.149,0,0,1,6.983,4.8H24.44V49H16.02A15.834,15.834,0,0,1,0,33.4C0,24.6,6.572,18.6,15.4,18A28.649,28.649,0,0,1,68.6,18c8.626.6,15.4,6.6,15.4,15.4A15.834,15.834,0,0,1,67.98,49H59.56V63.6h4.724a7.546,7.546,0,0,1,6.983-4.8,7.21,7.21,0,1,1,0,14.4,7.732,7.732,0,0,1-6.983-5H54.836V49H44.362Zm26.9-5.6A2.727,2.727,0,0,0,68.6,66a2.684,2.684,0,0,0,2.67,2.6A2.737,2.737,0,0,0,74.142,66,2.772,2.772,0,0,0,71.267,63.2ZM19.306,20.6a2.392,2.392,0,0,1-2.259,1.8c-6.778,0-12.323,4.2-12.323,11a11.117,11.117,0,0,0,11.3,11H67.98a11.25,11.25,0,0,0,11.3-11c0-6.8-5.545-11-12.323-11a2.22,2.22,0,0,1-2.259-1.6A23.8,23.8,0,0,0,41.9,4.6,23.555,23.555,0,0,0,19.306,20.6Z" transform="translate(0 0)"/></g></svg>