<svg xmlns="http://www.w3.org/2000/svg" width="84" height="78" viewBox="0 0 84 78"><defs><style>.a{fill:#fd8a1d;}</style></defs><g transform="translate(-4.1 -8.943)"><g transform="translate(4.1 8.943)"><path class="a" d="M54.5,42.449V39.8c0-3.148-2.4-5.8-5.25-5.8H47.3c-2.7.166-4.8,2.651-4.8,5.8v2.651A2.488,2.488,0,0,0,41,44.768v8.283a2.437,2.437,0,0,0,2.25,2.485h10.5A2.437,2.437,0,0,0,56,53.052V44.768A2.488,2.488,0,0,0,54.5,42.449Zm-6.75-5.136h1.5A2.437,2.437,0,0,1,51.5,39.8v2.485h-6V39.8A2.437,2.437,0,0,1,47.75,37.313ZM53,52.223H44V45.6h9Z" transform="translate(14.349 7.512)"/><path class="a" d="M48,43.657h0a1.507,1.507,0,1,1-3,0,1.36,1.36,0,0,1,.15-.663A1.32,1.32,0,0,1,46.5,42,1.851,1.851,0,0,1,48,43.657Z" transform="translate(16.348 12.765)"/><path class="a" d="M70.1,25.6H68.3C63.348,12.02,49.4,5.393,37.1,10.86c-8.25,3.645-13.95,11.928-14.85,21.7a20.326,20.326,0,0,0-3.15-.331c-8.25,0-14.85,7.289-15,16.235,0,9.443,6.9,16.9,15.3,16.9H50.149l.9,2.485a43.063,43.063,0,0,0,15,18.72,1.665,1.665,0,0,0,2.1,0c10.5-7.124,17.25-19.217,18.3-32.8h0a20.091,20.091,0,0,0,1.65-7.786c.15-11.1-7.65-20.211-17.55-20.377ZM19.25,62.051c-6.6,0-12-5.633-12.3-12.922-.15-7.289,5.1-13.419,11.7-13.585h.3a8.833,8.833,0,0,1,3,.5,4.261,4.261,0,0,1,1.5.663,1.149,1.149,0,0,0,1.35-.5c0-.166.15-.331.15-.5V33.888c.9-12.756,11.1-22.2,22.649-21.205,7.65.663,14.4,5.964,17.55,13.916.3.663.45,1.325.75,1.988.15.5.6.994,1.05.994,0,0,1.5-.166,2.25-.331h.75c8.25,0,14.85,7.289,15,16.235v.166l-.9-.166a30.046,30.046,0,0,1-7.5-2.154,36.12,36.12,0,0,1-6.75-4.142,15.883,15.883,0,0,1-1.65-1.325,1.73,1.73,0,0,0-1.2-.663,1.305,1.305,0,0,0-1.05.5,41.957,41.957,0,0,1-8.4,5.467c-.75.331-1.5.663-2.4.994a20.246,20.246,0,0,1-3,.828c-.75.166-2.7.5-2.7.5a2.05,2.05,0,0,0-1.65,1.988,46.912,46.912,0,0,0,.75,11.265c.15.994.75,3.313.75,3.479h-30ZM82.4,59.9a33.716,33.716,0,0,1-2.1,6.627,39.247,39.247,0,0,1-13.2,16.9,39.247,39.247,0,0,1-13.2-16.9c-.15-.331-.3-.828-.45-1.16-.45-1.16-1.2-3.81-1.35-4.142-.3-1.16-.45-2.154-.75-3.148a51.875,51.875,0,0,1-.75-9.609c.45-.166,1.05-.166,1.65-.331.9-.166,1.95-.5,3-.663a21.876,21.876,0,0,0,3.45-1.325,48.3,48.3,0,0,0,7.8-4.8,2.107,2.107,0,0,0,.6-.5c.75.5,1.35.994,2.25,1.657a30.531,30.531,0,0,0,6.3,3.645,27.086,27.086,0,0,0,8.1,2.319v4.639C83.3,55.259,83,57.578,82.4,59.9Z" transform="translate(-4.1 -8.943)"/></g></g></svg>