<svg xmlns="http://www.w3.org/2000/svg" width="84.069" height="84.069" viewBox="0 0 84.069 84.069"><defs><style>.a{fill:#fd8a1d;}</style></defs><g transform="translate(-1 -1)"><g transform="translate(1 1)"><g transform="translate(26.622 6.751)"><path class="a" d="M21.9,33.3V37.89a1.2,1.2,0,0,0,1.274,1.274H36.039l.127,9.808a1.37,1.37,0,0,0,1.274,1.274h0a1.276,1.276,0,0,0,1.274-1.274l-.127-9.808H51.451a1.2,1.2,0,0,0,1.274-1.274V33.3a10.22,10.22,0,0,0-10.19-10.19h-.892a8.835,8.835,0,0,0,4.84-7.9,8.916,8.916,0,0,0-17.833,0,8.835,8.835,0,0,0,4.84,7.9H32.345A10.277,10.277,0,0,0,21.9,33.3Zm9.171-18.088A6.387,6.387,0,0,1,37.44,8.848a6.307,6.307,0,0,1,6.369,6.369,6.369,6.369,0,0,1-12.738,0ZM50.178,33.3v3.312H24.448V33.3a7.665,7.665,0,0,1,7.643-7.643H42.408A7.693,7.693,0,0,1,50.178,33.3Z" transform="translate(-21.9 -6.3)"/></g><g transform="translate(57.32)"><path class="a" d="M63.833,15.394h-.127A7.93,7.93,0,0,0,67.4,8.77,7.9,7.9,0,0,0,51.6,8.9,7.8,7.8,0,0,0,55.3,15.521h-.382A8.97,8.97,0,0,0,46,24.565v3.821a1.2,1.2,0,0,0,1.274,1.274h9.681L47.911,42.015a1.274,1.274,0,0,0,2.038,1.529L60.139,29.66H71.475a1.2,1.2,0,0,0,1.274-1.274V24.565A9.082,9.082,0,0,0,63.833,15.394ZM59.5,3.548a5.287,5.287,0,1,1-.127,10.572,5.8,5.8,0,0,1-2.548-.637,5.316,5.316,0,0,1-2.8-4.586A5.409,5.409,0,0,1,59.5,3.548ZM70.2,26.985H48.548V24.437a6.5,6.5,0,0,1,6.369-6.5h8.916a6.415,6.415,0,0,1,6.369,6.5Z" transform="translate(-46 -1)"/></g><path class="a" d="M24.183,43.417a1.274,1.274,0,0,0,2.038-1.529l-9.3-12.356h9.553a1.2,1.2,0,0,0,1.274-1.274V24.437a9.053,9.053,0,0,0-8.916-9.044h-.127A7.776,7.776,0,0,0,14.5,1H14.12A7.75,7.75,0,0,0,6.6,8.77,7.93,7.93,0,0,0,10.3,15.394H9.916A8.97,8.97,0,0,0,1,24.437v3.821a1.2,1.2,0,0,0,1.274,1.274H13.738ZM14.375,3.548H14.5a5.382,5.382,0,0,1,5.35,5.35,5.519,5.519,0,0,1-2.8,4.713,5.269,5.269,0,0,1-2.42.637A5.357,5.357,0,0,1,9.28,9.025,5.2,5.2,0,0,1,14.375,3.548ZM3.548,24.437a6.5,6.5,0,0,1,6.369-6.5h8.916a6.415,6.415,0,0,1,6.369,6.5v2.548H3.548Z" transform="translate(-1 -1)"/><g transform="translate(19.743 47.002)"><path class="a" d="M57.261,38.027H54.586a3.7,3.7,0,0,0-3.694,3.694V52.676A12.061,12.061,0,0,1,37.645,64.649c-6.114-.51-10.827-5.987-10.827-12.356V40.957A3.1,3.1,0,0,0,23.76,37.9h-4.2A3.1,3.1,0,0,0,16.5,40.957V52.676a22.227,22.227,0,0,0,44.455.127V41.849A3.726,3.726,0,0,0,57.261,38.027ZM58.407,52.8A19.625,19.625,0,0,1,38.791,72.419h0A19.625,19.625,0,0,1,19.175,52.8V41.084a.548.548,0,0,1,.51-.51h4.2a.548.548,0,0,1,.51.51V52.421c0,7.643,5.732,14.266,13.12,14.9A14.564,14.564,0,0,0,53.439,52.8V41.849A1.142,1.142,0,0,1,54.586,40.7h2.675a1.142,1.142,0,0,1,1.146,1.146Z" transform="translate(-16.5 -37.9)"/></g></g></g></svg>