<svg xmlns="http://www.w3.org/2000/svg" width="84" height="63.642" viewBox="0 0 84 63.642"><defs><style>.a{fill:#fd8a1d;}</style></defs><g transform="translate(-38.01 -94.008)"><g transform="translate(38.01 94.008)"><path class="a" d="M21,23a7.073,7.073,0,0,0-7,7.071V70.141a7.073,7.073,0,0,0,7,7.071H53.667v4.714H33.833q-.109-.005-.219,0a2.36,2.36,0,0,0,.219,4.714H78.167a2.357,2.357,0,0,0,0-4.714H58.333V77.212H91a7.073,7.073,0,0,0,7-7.071V30.071A7.073,7.073,0,0,0,91,23Zm0,4.714H91a2.29,2.29,0,0,1,2.333,2.357V70.141A2.29,2.29,0,0,1,91,72.5H21a2.29,2.29,0,0,1-2.333-2.357V30.071A2.29,2.29,0,0,1,21,27.714ZM45.5,46.57A3.536,3.536,0,1,0,49,50.106,3.518,3.518,0,0,0,45.5,46.57Zm10.5,0a3.536,3.536,0,1,0,3.5,3.536A3.518,3.518,0,0,0,56,46.57Zm10.5,0A3.536,3.536,0,1,0,70,50.106,3.518,3.518,0,0,0,66.5,46.57Z" transform="translate(-14 -23)"/></g></g></svg>