<svg xmlns="http://www.w3.org/2000/svg" width="84" height="84" viewBox="0 0 84 84"><defs><style>.a{fill:#fd8a1d;}</style></defs><g transform="translate(-8 -8)"><path class="a" d="M86.273,8H13.727A5.734,5.734,0,0,0,8,13.727V86.273A5.734,5.734,0,0,0,13.727,92H86.273A5.734,5.734,0,0,0,92,86.273V13.727A5.734,5.734,0,0,0,86.273,8ZM13.727,11.818H86.273a1.911,1.911,0,0,1,1.909,1.909V30.909H11.818V13.727A1.911,1.911,0,0,1,13.727,11.818ZM86.273,88.182H13.727a1.911,1.911,0,0,1-1.909-1.909V34.727H88.182V86.273A1.911,1.911,0,0,1,86.273,88.182Z"/><path class="a" d="M17.727,23.455A5.727,5.727,0,1,0,12,17.727,5.734,5.734,0,0,0,17.727,23.455Zm0-7.636a1.909,1.909,0,1,1-1.909,1.909A1.911,1.911,0,0,1,17.727,15.818Z" transform="translate(3.636 3.636)"/><path class="a" d="M25.727,23.455A5.727,5.727,0,1,0,20,17.727,5.734,5.734,0,0,0,25.727,23.455Zm0-7.636a1.909,1.909,0,1,1-1.909,1.909A1.911,1.911,0,0,1,25.727,15.818Z" transform="translate(10.909 3.636)"/><rect class="a" width="31.921" height="3.547" transform="translate(53.547 18.079)"/><path class="a" d="M27.9,31.559a1.908,1.908,0,0,0-2.7,0L17.559,39.2a1.908,1.908,0,0,0,0,2.7L25.2,49.532a1.909,1.909,0,0,0,2.7-2.7l-6.286-6.287L27.9,34.259A1.908,1.908,0,0,0,27.9,31.559Z" transform="translate(8.182 20.909)"/><path class="a" d="M40.259,31.559a1.909,1.909,0,0,0-2.7,2.7l6.287,6.287-6.287,6.287a1.909,1.909,0,1,0,2.7,2.7L47.9,41.9a1.908,1.908,0,0,0,0-2.7Z" transform="translate(26.364 20.909)"/><path class="a" d="M40.072,28.136A1.914,1.914,0,0,0,37.591,29.2L26.136,57.836a1.91,1.91,0,1,0,3.546,1.419L41.137,30.618A1.911,1.911,0,0,0,40.072,28.136Z" transform="translate(16.363 18.182)"/></g></svg>