<svg xmlns="http://www.w3.org/2000/svg" width="106.285" height="149.719" viewBox="0 0 106.285 149.719"><defs><style>.a{opacity:0.74;}.b{fill:#5a5a5a;}</style></defs><g class="a"><path class="b" d="M20.907,18.856H27.1v6.778h6.769V5.391H27.1v6.69H20.907V5.391H14.141V25.634h6.766Z" transform="translate(-4.391 -5.391)"/><path class="b" d="M27.514,25.634H34.28V12.108h5.953V5.391H21.561v6.717h5.953Z" transform="translate(10.855 -5.391)"/><path class="b" d="M35.262,15.606,39.924,22.8h.113l4.652-7.194V25.634H51.43V5.391H44.374l-4.338,7.123L35.7,5.391H28.646V25.634h6.616Z" transform="translate(25.411 -5.391)"/><path class="b" d="M53.488,18.947H43.973V5.391H37.207V25.634H53.488Z" transform="translate(43.001 -5.391)"/><path class="b" d="M10.949,14.926l9.677,108.537,43.44,12.057,43.473-12.05,9.7-108.543H10.949ZM96.24,50.421H45.3l1.216,13.633H95.03l-3.65,40.88-27.29,7.56-.018.006L36.8,104.933,34.9,83.551H48.258l.99,11.091L64.075,98.65l.018-.006h0l14.842-4.008,1.546-17.265H34.344l-3.6-40.257H97.428Z" transform="translate(-10.949 14.2)"/></g></svg>