<svg xmlns="http://www.w3.org/2000/svg" width="84" height="84" viewBox="0 0 84 84"><defs><style>.a{fill:#fd8a1d;}</style></defs><g transform="translate(-44.286 -43.834)"><g transform="translate(44.286 43.834)"><g transform="translate(44.427 27.438)"><path class="a" d="M541.205,353.54a2.02,2.02,0,1,0-2.02-2.02,2.04,2.04,0,0,0,2.02,2.02Z" transform="translate(-539.184 -349.5)"/></g><g transform="translate(0 0)"><path class="a" d="M121.184,70.869c.036.081.251.566.045.1.054.117.1.242.153.368l.323.808c.206.539.4,1.086.583,1.643.35,1.059.664,2.136.925,3.223s.485,2.208.655,3.321c.027.162.054.323.072.485-.045-.467-.009-.09,0,.027.036.269.063.539.09.808.063.628.117,1.257.153,1.885a40.948,40.948,0,0,1-.09,5.844c-.036.431-.081.862-.135,1.3-.009.1-.027.206-.036.305-.054.449.072-.494.009-.045l-.108.727c-.135.844-.3,1.688-.485,2.522a39.995,39.995,0,0,1-1.472,4.973c-.135.377-.278.745-.431,1.113-.063.144-.35.772-.072.18-.1.215-.189.44-.287.655-.341.763-.7,1.508-1.086,2.244a41.178,41.178,0,0,1-2.639,4.345c-.224.323-.458.637-.691.96-.117.153-.242.305-.359.467.332-.485.108-.144.027-.036-.072.09-.144.188-.215.278-.539.673-1.1,1.329-1.679,1.966a38.843,38.843,0,0,1-3.546,3.438c-.314.269-.628.53-.952.79l-.512.4c-.1.081-.305.2.126-.1-.126.09-.251.189-.377.287-.664.494-1.338.969-2.029,1.418a40.323,40.323,0,0,1-4.372,2.487c-.377.18-.754.359-1.131.53-.18.081-.359.162-.548.242-.054.018-.422.18-.09.036s-.144.054-.2.081c-.781.314-1.562.61-2.361.871a39.237,39.237,0,0,1-5.036,1.329c-.4.081-.808.153-1.2.215-.206.036-.4.063-.61.09-.126.018-.242.027-.368.054.61-.108.18-.027.045-.009q-1.333.162-2.666.242a40.933,40.933,0,0,1-5.35-.045c-.413-.027-.826-.072-1.239-.108l-.673-.081c-.1-.009-.206-.027-.305-.036.628.054.135.018-.009,0-.871-.126-1.733-.278-2.594-.467a40.83,40.83,0,0,1-4.946-1.391c-.395-.144-.79-.287-1.176-.44-.189-.072-.368-.144-.557-.224-.072-.027-.144-.063-.224-.09-.2-.081-.144-.063.153.063-.072-.027-.144-.063-.215-.09-.763-.332-1.517-.682-2.262-1.059a40.7,40.7,0,0,1-4.381-2.594c-.323-.224-.646-.449-.97-.682-.162-.117-.314-.233-.476-.35-.1-.072-.189-.144-.278-.215-.305-.224.359.278.036.027-.664-.521-1.311-1.059-1.948-1.616a40.991,40.991,0,0,1-3.528-3.537c-.26-.3-.512-.592-.763-.9-.135-.171-.278-.332-.413-.5-.063-.081-.126-.153-.18-.233-.036-.054-.359-.449-.135-.171s-.027-.036-.054-.081l-.18-.233c-.126-.171-.26-.35-.386-.521-.251-.35-.5-.709-.745-1.068a39.41,39.41,0,0,1-2.514-4.291c-.395-.781-.736-1.58-1.1-2.379.278.583-.018-.036-.072-.18-.072-.189-.144-.368-.215-.557q-.242-.619-.458-1.239a38.792,38.792,0,0,1-1.382-5.018c-.171-.844-.314-1.688-.44-2.54-.063-.449.063.494.009.045l-.027-.242c-.027-.206-.045-.413-.072-.619-.045-.458-.09-.907-.117-1.364A41.889,41.889,0,0,1,48.39,83.3c.054-.871.144-1.732.242-2.6.054-.449-.072.494-.009.045.018-.1.027-.206.045-.305.036-.224.072-.449.108-.664.072-.44.153-.889.242-1.329a38.85,38.85,0,0,1,1.32-4.91c.278-.835.592-1.652.925-2.469.045-.117.162-.341-.063.153.054-.108.09-.215.144-.332.081-.18.162-.368.242-.548.18-.395.368-.79.557-1.185a38.97,38.97,0,0,1,2.54-4.408c.458-.691.934-1.364,1.436-2.02.036-.045.278-.359.054-.081s.027-.036.063-.072c.126-.153.242-.305.368-.458q.4-.5.835-1a40.682,40.682,0,0,1,3.537-3.609c.61-.548,1.239-1.086,1.885-1.6.09-.072.189-.144.278-.215.26-.206-.1.081-.126.1.18-.117.341-.26.521-.386.359-.269.727-.53,1.1-.79a39.285,39.285,0,0,1,4.255-2.558c.772-.4,1.562-.781,2.361-1.131.153-.063.781-.3.18-.081.189-.063.368-.153.557-.224.4-.162.817-.323,1.23-.467a38.257,38.257,0,0,1,4.991-1.445c.835-.189,1.679-.341,2.532-.467.206-.027.4-.054.61-.09-.664.117.036,0,.2-.018.449-.054.907-.1,1.356-.135a40.045,40.045,0,0,1,6.05-.054c.548.036,1.1.081,1.634.144.269.027.539.063.808.1.548.072-.44-.063.108.018.162.027.323.045.485.072,1.14.18,2.28.4,3.4.682,1.059.26,2.1.566,3.133.916.5.171,1,.35,1.49.539.242.09.494.189.736.287.144.063.3.117.44.18-.467-.206.018.009.1.045a2.226,2.226,0,0,0,1.553.206,2.018,2.018,0,0,0,.476-3.689,43.033,43.033,0,0,0-14.372-3.528,42.007,42.007,0,1,0,5.781,83.07A42.025,42.025,0,0,0,127.01,75.51a42.955,42.955,0,0,0-2.334-6.706,2.034,2.034,0,0,0-2.765-.727,2.113,2.113,0,0,0-.727,2.792Z" transform="translate(-44.286 -43.834)"/></g><g transform="translate(52.533 35.544)"><path class="a" d="M631.505,443.839a2.02,2.02,0,1,0-2.02-2.02,2.04,2.04,0,0,0,2.02,2.02Z" transform="translate(-629.484 -439.8)"/></g><g transform="translate(44.427 27.438)"><path class="a" d="M541.205,353.54a2.02,2.02,0,1,0-2.02-2.02,2.04,2.04,0,0,0,2.02,2.02Z" transform="translate(-539.184 -349.5)"/></g><g transform="translate(12.745 12.802)"><path class="a" d="M240.106,210.294c.081.359.153.709.215,1.068.036.2.072.386.1.583.009.081.027.171.036.251.009.063.009.395.018.153.018-.26.009.081.018.153s.018.171.027.251l.054.512c.036.395.063.8.081,1.2a28.1,28.1,0,0,1-.09,3.788c-.027.269-.054.539-.09.8-.045.377.063-.422.009-.045-.027.162-.045.323-.072.485-.09.548-.189,1.086-.314,1.625a26.362,26.362,0,0,1-.925,3.187l-.269.727c-.045.108-.09.224-.135.332-.027.072-.063.144-.09.224-.1.242.171-.386.063-.153-.224.485-.44.978-.682,1.454a25.727,25.727,0,0,1-1.634,2.81c-.3.44-.6.88-.925,1.3-.036.045-.072.09-.108.144-.126.18.144-.189.135-.18-.09.1-.171.215-.26.323-.171.215-.35.422-.53.637a27.9,27.9,0,0,1-2.2,2.289c-.4.377-.817.736-1.239,1.086-.09.072-.18.153-.278.224l-.135.108c-.26.206.108-.081.126-.1-.224.153-.44.332-.664.494a26.2,26.2,0,0,1-2.693,1.706c-.485.269-.978.521-1.481.763-.215.1-.431.206-.646.3-.063.027-.521.224-.2.09s-.188.072-.251.108A26.894,26.894,0,0,1,222,240.016c-1.086.287-2.181.485-3.295.664-.018,0,.458-.054.233-.036l-.189.027c-.144.018-.287.036-.431.045-.287.027-.575.054-.871.072-.566.036-1.131.063-1.7.072a26.635,26.635,0,0,1-3.384-.18c-.1-.009-.566-.072-.224-.027s-.081-.009-.162-.027c-.305-.045-.61-.1-.907-.153-.539-.1-1.077-.215-1.607-.35a27.026,27.026,0,0,1-3.106-.969c-.242-.09-.485-.189-.727-.287-.332-.135.395.18-.009-.009-.126-.054-.251-.117-.377-.171-.5-.233-1.005-.476-1.49-.736a29.107,29.107,0,0,1-2.729-1.661c-.206-.144-.422-.3-.619-.449-.108-.081-.224-.162-.332-.251-.26-.2.341.269-.009-.009-.413-.332-.817-.673-1.221-1.023a26.136,26.136,0,0,1-2.28-2.289c-.35-.395-.691-.808-1.023-1.221-.215-.269.278.377-.009-.009-.072-.1-.144-.188-.215-.287-.162-.224-.323-.449-.476-.673a27.322,27.322,0,0,1-1.688-2.783c-.251-.476-.485-.952-.709-1.445-.045-.108-.1-.215-.144-.323-.2-.449.126.314-.009-.009-.108-.26-.206-.521-.305-.781a27.04,27.04,0,0,1-.97-3.106c-.135-.557-.251-1.113-.359-1.67-.045-.26-.09-.521-.126-.79-.009-.081-.072-.5-.027-.162s-.018-.188-.036-.287a28.385,28.385,0,0,1-.171-3.384c.009-.583.036-1.176.072-1.759.018-.269.045-.539.072-.808.009-.126.027-.242.045-.368l.027-.189c.027-.26-.072.476-.018.108a27.924,27.924,0,0,1,1.715-6.364c.027-.072.189-.458.063-.144s.054-.108.09-.2l.35-.754c.233-.485.476-.952.736-1.418a29.045,29.045,0,0,1,1.715-2.693c.153-.206.314-.4.458-.61-.323.485-.081.108.009-.009s.2-.242.3-.368c.341-.4.682-.808,1.05-1.194a29.418,29.418,0,0,1,2.289-2.2c.2-.162.4-.332.592-.485a2.925,2.925,0,0,0,.323-.26c.009-.009-.35.26-.18.135.081-.054.153-.117.233-.18.422-.314.862-.619,1.3-.916a27.283,27.283,0,0,1,2.765-1.6c.476-.233,1-.413,1.454-.682-.027.018-.467.188-.153.063.054-.027.108-.045.162-.072.108-.045.224-.09.332-.135.278-.108.557-.215.844-.314a26.742,26.742,0,0,1,3.142-.9c.539-.117,1.077-.224,1.625-.305.144-.027.287-.045.422-.063.377-.054-.422.054-.045.009.287-.036.575-.063.862-.09a26.945,26.945,0,0,1,3.806-.081c.368.018.745.045,1.113.072l.512.054c.117.009.224.027.341.036.036,0,.323.054.072.009s.242.036.314.045c.2.027.386.063.583.1.386.072.772.144,1.149.233a2.021,2.021,0,1,0,1.077-3.9,29.219,29.219,0,1,0-2.163,57.4,28.492,28.492,0,0,0,12.8-5.2,29.181,29.181,0,0,0,12.1-25.161,32.113,32.113,0,0,0-.673-4.982A2.034,2.034,0,0,0,241.5,207.8a2.092,2.092,0,0,0-1.391,2.5Z" transform="translate(-186.258 -186.447)"/></g><g transform="translate(52.533 35.544)"><path class="a" d="M631.505,443.839a2.02,2.02,0,1,0-2.02-2.02,2.04,2.04,0,0,0,2.02,2.02Z" transform="translate(-629.484 -439.8)"/></g><g transform="translate(26.628 26.721)"><path class="a" d="M366.886,352.886a15.155,15.155,0,0,1,.557,2.083l.054.323c.045.233-.009-.126-.018-.135a2.17,2.17,0,0,1,.054.485q.054.579.054,1.158c0,.3-.009.592-.027.88l-.027.377c-.009.063-.009.126-.018.189-.036.323-.009.063.018-.108-.1.539-.188,1.077-.332,1.616-.072.251-.144.5-.224.754a5.222,5.222,0,0,0-.287.79c0,.009.18-.4.09-.206-.036.072-.063.144-.1.215-.045.108-.1.215-.153.323-.126.251-.251.494-.386.736-.278.485-.593.925-.907,1.382-.117.179.144-.189.135-.171l-.108.135c-.09.108-.171.215-.26.314-.18.207-.359.413-.557.61a14.8,14.8,0,0,1-1.167,1.077l-.135.108c-.135.108-.215.072.126-.1a2.114,2.114,0,0,0-.287.206c-.224.162-.458.314-.691.458a12.752,12.752,0,0,1-1.463.79,3.527,3.527,0,0,0-.323.144c-.009.009.413-.161.207-.09-.072.027-.153.063-.225.09-.26.1-.53.189-.8.278a13.823,13.823,0,0,1-1.6.386c-.117.018-.242.036-.368.063-.35.054.458-.054-.018,0-.287.027-.583.054-.871.063a13.379,13.379,0,0,1-1.7-.036c-.144-.009-.287-.027-.431-.045-.224-.018.251.036.233.036l-.18-.027c-.305-.045-.6-.108-.9-.171a11.949,11.949,0,0,1-1.562-.458c-.117-.045-.224-.081-.332-.126-.458-.18.305.144-.018,0-.251-.117-.5-.233-.754-.359a13.17,13.17,0,0,1-1.373-.817l-.341-.233c-.045-.036-.09-.072-.144-.108-.18-.117.189.144.171.135-.2-.189-.431-.341-.637-.53a14.313,14.313,0,0,1-1.167-1.167c-.171-.188-.323-.4-.494-.583-.135-.162.144.188.135.18a.751.751,0,0,0-.108-.144c-.09-.126-.18-.251-.269-.386a13.169,13.169,0,0,1-.817-1.373c-.117-.233-.224-.467-.332-.7-.189-.4.126.314-.009-.009-.054-.135-.1-.26-.153-.395a12.9,12.9,0,0,1-.467-1.625c-.054-.26-.108-.521-.153-.781-.009-.063-.018-.126-.027-.18-.036-.224.036.251.027.233-.009-.162-.036-.332-.054-.494a13.39,13.39,0,0,1-.036-1.7c.009-.269.027-.539.063-.808a1.339,1.339,0,0,0,.018-.188c.027-.269-.063.44-.027.171.027-.144.045-.287.072-.422a14.283,14.283,0,0,1,.386-1.6c.081-.251.162-.494.251-.736.027-.063.215-.53.072-.206s.081-.18.117-.251a12.576,12.576,0,0,1,.763-1.409c.135-.215.278-.431.422-.637a2.847,2.847,0,0,0,.242-.332c.009-.009-.269.341-.135.18.054-.063.1-.126.144-.18a12.011,12.011,0,0,1,1.077-1.167q.269-.269.565-.512c.108-.09.207-.18.314-.26l.135-.108c.189-.153-.422.305-.081.063.431-.305.871-.6,1.338-.871.224-.126.449-.251.682-.359.108-.054.215-.108.323-.153.072-.036.144-.063.215-.1.251-.117-.081.054-.153.063a5.452,5.452,0,0,0,.727-.269q.4-.135.808-.242c.53-.144,1.068-.233,1.616-.332-.61.108-.135.018.018.009s.287-.027.431-.036c.3-.018.583-.027.88-.027.359,0,.718.018,1.077.045.162.009.323.036.494.045.242.027-.126-.018-.135-.018a1.64,1.64,0,0,1,.4.063,12.965,12.965,0,0,1,2.083.557,2.035,2.035,0,0,0,2.487-1.409,2.073,2.073,0,0,0-1.409-2.486,15.346,15.346,0,1,0,10.1,11.759,12.9,12.9,0,0,0-.583-2.244,2.063,2.063,0,0,0-2.487-1.409,2,2,0,0,0-1.373,2.451Z" transform="translate(-340.908 -341.504)"/></g><g transform="translate(53.783 0.026)"><path class="a" d="M670.174,54.521l-5.539,5.539-8.761,8.761-2.029,2.029,1.427-.592c-2.846-.018-5.691-.045-8.537-.063-.4,0-.808-.009-1.221-.009l2.02,2.02c-.018-2.846-.045-5.691-.063-8.537,0-.4-.009-.808-.009-1.221l-.593,1.427,5.539-5.539,8.761-8.761,2.029-2.029-3.447-1.427c.018,2.846.045,5.691.063,8.537,0,.4.009.808.009,1.221a2.052,2.052,0,0,0,2.02,2.02c2.846.018,5.691.045,8.537.063.4,0,.808.009,1.221.009a2.02,2.02,0,1,0,0-4.039c-2.846-.018-5.691-.045-8.537-.063-.4,0-.808-.009-1.221-.009l2.02,2.02c-.018-2.846-.045-5.691-.063-8.537,0-.4-.009-.808-.009-1.221a2.042,2.042,0,0,0-3.447-1.427l-3.124,3.124-6.463,6.463-5.584,5.583c-.377.377-.772.745-1.14,1.14-.79.862-.61,1.993-.61,3.061.018,2.648.036,5.305.054,7.953v.189a2.052,2.052,0,0,0,2.02,2.02l7.173.054c.853.009,1.724.045,2.576.018,1.005-.036,1.535-.691,2.163-1.329l5.171-5.171,6.616-6.616c1.248-1.248,2.531-2.469,3.752-3.752l.063-.063a2.009,2.009,0,1,0-2.837-2.846Z" transform="translate(-643.405 -44.119)"/></g><g transform="translate(40.111 26.118)"><path class="a" d="M494.547,351.985l4.641-4.641,7.433-7.433,1.7-1.7a2.019,2.019,0,1,0-2.855-2.855L500.822,340l-7.433,7.433-1.7,1.7a2.018,2.018,0,0,0,2.855,2.855Z" transform="translate(-491.11 -334.785)"/></g></g></g></svg>