<svg xmlns="http://www.w3.org/2000/svg" width="45.717" height="83" viewBox="0 0 45.717 83"><defs><style>.a{fill:#fd8a1d;}</style></defs><g transform="translate(-24.1 -3.3)"><path class="a" d="M42.134,41.55a1.108,1.108,0,0,0-1.509-.178l-5.77,4.882a.964.964,0,0,0-.355.8,1.125,1.125,0,0,0,.355.8l5.77,4.882a1.008,1.008,0,0,0,.71.266,1.125,1.125,0,0,0,.8-.355,1.03,1.03,0,0,0-.178-1.509l-4.794-3.995,4.794-3.995A1.141,1.141,0,0,0,42.134,41.55Z" transform="translate(-1.168 -4.251)"/><path class="a" d="M63.848,46.555l-5.77-4.882a1.108,1.108,0,0,0-1.509.178,1.03,1.03,0,0,0,.178,1.509l4.794,3.995-4.794,3.995a1.108,1.108,0,0,0-.178,1.509.964.964,0,0,0,.8.355,1.008,1.008,0,0,0,.71-.266l5.77-4.882a.964.964,0,0,0,.355-.8A.917.917,0,0,0,63.848,46.555Z" transform="translate(-3.618 -4.285)"/><path class="a" d="M52.251,35.894a1.105,1.105,0,0,0-1.332.71L44.794,56.223a1.105,1.105,0,0,0,.71,1.332c.089,0,.178.089.355.089a1.116,1.116,0,0,0,1.065-.8l6.036-19.529A1.092,1.092,0,0,0,52.251,35.894Z" transform="translate(-2.319 -3.655)"/><path class="a" d="M64.668,3.3H29.249A5.21,5.21,0,0,0,24.1,8.449v72.7A5.21,5.21,0,0,0,29.249,86.3H64.668a5.21,5.21,0,0,0,5.149-5.149V8.449A5.271,5.271,0,0,0,64.668,3.3Zm2.308,77.851a2.239,2.239,0,0,1-2.308,2.308H29.249a2.239,2.239,0,0,1-2.308-2.308v-7.9H67.065v7.9Zm0-10.652H26.852V13.6H66.976Zm0-59.742H26.852V8.449A2.239,2.239,0,0,1,29.16,6.141H41.854a1.054,1.054,0,0,0,1.065.888h7.812A1.142,1.142,0,0,0,51.8,6.141H64.49A2.239,2.239,0,0,1,66.8,8.449v2.308Z" transform="translate(0 0)"/><circle class="a" cx="2.397" cy="2.397" r="2.397" transform="translate(44.517 76.003)"/></g></svg>