<svg xmlns="http://www.w3.org/2000/svg" width="106.285" height="119.88" viewBox="0 0 106.285 119.88"><defs><style>.a{opacity:0.74;}.b{fill:#5a5a5a;}</style></defs><g class="a"><g transform="translate(0 0)"><path class="b" d="M105.2,145.881a9.315,9.315,0,0,1-4.615-1.237L85.91,135.962c-2.188-1.237-1.118-1.665-.4-1.9a28.9,28.9,0,0,0,6.636-3.021,1.073,1.073,0,0,1,1.094.1l11.276,6.684a1.378,1.378,0,0,0,1.356,0L149.8,112.459a1.407,1.407,0,0,0,.666-1.189V60.553a1.416,1.416,0,0,0-.689-1.213L105.868,34.006a1.377,1.377,0,0,0-1.356,0L60.624,59.364a1.388,1.388,0,0,0-.69,1.213v50.693a1.313,1.313,0,0,0,.69,1.166l12.037,6.946C79.2,122.64,83.2,118.81,83.2,114.933V64.882a1.259,1.259,0,0,1,1.285-1.261H90.05a1.274,1.274,0,0,1,1.284,1.261v50.074c0,8.706-4.758,13.7-13.012,13.7-2.546,0-4.544,0-10.11-2.759L56.7,119.262a9.25,9.25,0,0,1-4.615-8.016V60.553A9.278,9.278,0,0,1,56.7,52.537l43.889-25.358a9.633,9.633,0,0,1,9.23,0L153.755,52.56a9.25,9.25,0,0,1,4.615,8.017v50.693a9.308,9.308,0,0,1-4.615,8.017l-43.937,25.358A9.252,9.252,0,0,1,105.2,145.881ZM140.671,95.9c0-9.492-6.423-12.013-19.911-13.8-13.655-1.808-15.034-2.736-15.034-5.923,0-2.64,1.166-6.161,11.276-6.161,9.016,0,12.346,1.951,13.726,8.041a1.274,1.274,0,0,0,1.237,1h5.71a1.242,1.242,0,0,0,.928-.4,1.319,1.319,0,0,0,.332-.975c-.88-10.49-7.85-15.367-21.932-15.367C104.465,62.314,97,67.595,97,76.468c0,9.61,7.445,12.275,19.458,13.464,14.392,1.4,15.51,3.521,15.51,6.352,0,4.9-3.948,6.993-13.2,6.993-11.632,0-14.178-2.926-15.034-8.706a1.259,1.259,0,0,0-1.261-1.07H96.782a1.253,1.253,0,0,0-1.26,1.26c0,7.4,4.02,16.224,23.265,16.224,13.892-.024,21.885-5.52,21.885-15.082Z" transform="translate(-52.084 -26.001)"/></g></g></svg>