<svg xmlns="http://www.w3.org/2000/svg" width="126.203" height="127.598" viewBox="0 0 126.203 127.598"><defs><style>.a{opacity:0.74;}.b{fill:#5a5a5a;}</style></defs><g class="a"><g transform="translate(0 0)"><path class="b" d="M68.4,1.78A86.941,86.941,0,0,0,53.85,3.022C40.968,5.3,38.63,10.061,38.63,18.845v11.6H69.071v3.867H27.205c-8.847,0-16.594,5.318-19.016,15.433-2.8,11.6-2.92,18.832,0,30.939C10.353,89.7,15.52,96.118,24.367,96.118H34.833V82.209A19.345,19.345,0,0,1,53.85,63.3H84.255a15.336,15.336,0,0,0,15.22-15.468V18.845c0-8.248-6.959-14.447-15.22-15.823A94.842,94.842,0,0,0,68.4,1.78ZM51.934,11.11a5.8,5.8,0,1,1-5.712,5.818A5.776,5.776,0,0,1,51.934,11.11Z" transform="translate(-6.046 -1.779)"/><path class="b" d="M200.164,131.062v13.517c0,10.481-8.884,19.3-19.016,19.3H150.742a15.529,15.529,0,0,0-15.22,15.469v28.987c0,8.249,7.173,13.1,15.22,15.468a50.917,50.917,0,0,0,30.406,0c7.663-2.218,15.22-6.684,15.22-15.468v-11.6h-30.4v-3.866h45.624c8.848,0,12.145-6.17,15.221-15.433,3.178-9.537,3.043-18.707,0-30.939-2.186-8.806-6.362-15.433-15.221-15.433H200.164Zm-17.1,73.405a5.8,5.8,0,1,1-5.712,5.782A5.744,5.744,0,0,1,183.064,204.467Z" transform="translate(-102.938 -98.527)"/></g></g></svg>