<svg xmlns="http://www.w3.org/2000/svg" width="124.09" height="110.415" viewBox="0 0 124.09 110.415"><defs><style>.a{opacity:0.74;}.b{fill:#5a5a5a;}</style></defs><g class="a"><ellipse class="b" cx="11.088" cy="11.088" rx="11.088" ry="11.088" transform="translate(50.979 43.997)"/><g transform="translate(0 29.904)"><path class="b" d="M80.567,236.182c-15.572,0-29.178-1.833-39.361-5.323a50.008,50.008,0,0,1-16.213-8.681c-4.241-3.622-6.494-7.576-6.494-11.4,0-7.333,8.04-14.512,21.536-19.194,11.044-3.843,25.445-5.986,40.509-5.986,14.8,0,29,2.076,39.979,5.875a50.819,50.819,0,0,1,15.682,8.261c4.175,3.49,6.383,7.311,6.383,11.044,0,7.62-8.99,15.329-23.48,20.122C108.862,234.3,95.167,236.182,80.567,236.182Zm0-45.28c-14.291,0-28.427,2.076-38.764,5.677-12.413,4.329-17.98,10.249-17.98,14.2,0,4.108,5.986,10.58,19.106,15.064,9.63,3.291,22.662,5.036,37.638,5.036,14.048,0,27.146-1.767,36.887-5.014,13.628-4.528,19.857-11,19.857-15.086,0-2.1-1.59-4.572-4.484-6.98a45.459,45.459,0,0,0-14-7.333C108.376,192.889,94.792,190.9,80.567,190.9Z" transform="translate(-18.5 -185.6)"/></g><g transform="translate(24.001 0)"><path class="b" d="M140.068,160.561a11.646,11.646,0,0,1-5.92-1.458c-6.339-3.667-8.548-14.225-5.875-28.251,2.187-11.508,7.532-25.026,15.064-38.08,7.4-12.811,16.279-24.076,25.048-31.7a50.426,50.426,0,0,1,15-9.454c5.1-1.877,9.52-1.877,12.745-.022,6.6,3.8,8.791,15.462,5.7,30.393-2.187,10.6-7.4,23.391-14.689,36.048-7.775,13.474-16.168,24.341-24.275,31.431a50.06,50.06,0,0,1-15.616,9.7A21.529,21.529,0,0,1,140.068,160.561ZM145.612,94.1l2.3,1.325c-7.134,12.369-12.413,25.644-14.446,36.423-2.452,12.921-.088,20.7,3.313,22.662a6.537,6.537,0,0,0,3.291.751c4.4,0,11.309-2.783,19.3-9.763,7.665-6.693,15.682-17.118,23.17-30.084,7.024-12.17,12.016-24.407,14.092-34.457,2.894-14.07.4-22.684-3.159-24.739-1.811-1.038-4.749-.906-8.283.4A45.109,45.109,0,0,0,171.852,65.1c-8.327,7.245-16.831,18.024-23.943,30.349Z" transform="translate(-127.159 -50.212)"/></g><g transform="translate(24.028 0.107)"><path class="b" d="M190.481,161c-6.008,0-13.628-3.622-21.58-10.47-8.879-7.642-17.913-19.018-25.467-32.072h0c-7.422-12.811-12.723-26.13-14.954-37.55a50.672,50.672,0,0,1-.707-17.715c.928-5.367,3.114-9.189,6.361-11.066,6.582-3.821,17.781.11,29.178,10.249,8.084,7.179,16.566,18.09,23.877,30.724,7.8,13.474,13.032,26.174,15.108,36.732a50.493,50.493,0,0,1,.618,18.377c-1.016,5.5-3.313,9.409-6.626,11.331A11.345,11.345,0,0,1,190.481,161Zm-42.453-45.192c7.157,12.369,16.036,23.568,24.341,30.7,9.962,8.57,17.869,10.426,21.293,8.438,3.556-2.054,6.163-10.47,3.468-24.076-1.988-9.984-7-22.132-14.512-35.1-7.046-12.17-15.152-22.618-22.817-29.421-10.735-9.542-19.437-11.685-22.994-9.63-1.811,1.038-3.159,3.667-3.8,7.377a45.176,45.176,0,0,0,.685,15.793c2.12,10.845,7.2,23.59,14.335,35.915Z" transform="translate(-127.284 -50.696)"/></g></g></svg>