<svg xmlns="http://www.w3.org/2000/svg" width="44" height="44" viewBox="0 0 44 44">
  <g id="Group_94" data-name="Group 94" transform="translate(-554 -7871)">
    <circle id="Ellipse_5" data-name="Ellipse 5" cx="22" cy="22" r="22" transform="translate(554 7871)" fill="#ece4f8"/>
    <g id="_211929_social_youtube_icon" data-name="211929_social_youtube_icon" transform="translate(565.436 7885.141)">
      <path id="Path_17" data-name="Path 17" d="M20.811,67.471a3.182,3.182,0,0,0-3.029-3.323C15.514,64.041,13.2,64,10.84,64H10.1c-2.358,0-4.674.041-6.942.147A3.189,3.189,0,0,0,.137,67.479c-.1,1.457-.147,2.914-.143,4.371s.041,2.914.139,4.375a3.192,3.192,0,0,0,3.025,3.336c2.382.111,4.826.16,7.31.156s4.924-.041,7.31-.156a3.193,3.193,0,0,0,3.029-3.336c.1-1.461.143-2.918.139-4.379S20.909,68.932,20.811,67.471ZM8.466,75.865V67.823L14.4,71.842Z" transform="translate(0.006 -64)" fill="#4a2388"/>
    </g>
  </g>
</svg>
